<svg xmlns="http://www.w3.org/2000/svg" viewBox="0 0 200 200">
  <defs>
    <linearGradient id="logoGrad" x1="0%" y1="0%" x2="100%" y2="100%">
      <stop offset="0%" style="stop-color:#ffff00;stop-opacity:1" />
      <stop offset="50%" style="stop-color:#00ff00;stop-opacity:1" />
      <stop offset="100%" style="stop-color:#00ffff;stop-opacity:1" />
    </linearGradient>
  </defs>
  
  <!-- Background circle elements -->
  <circle cx="75" cy="95" r="8" fill="url(#logoGrad)" opacity="0.8"/>
  <circle cx="125" cy="95" r="8" fill="url(#logoGrad)" opacity="0.8"/>
  
  <!-- Main H&H letterform -->
  <g transform="translate(100,100)">
    <!-- H left vertical -->
    <rect x="-60" y="-50" width="12" height="100" fill="url(#logoGrad)" rx="6"/>
    <!-- H right vertical -->  
    <rect x="-20" y="-50" width="12" height="100" fill="url(#logoGrad)" rx="6"/>
    <!-- H horizontal bar -->
    <rect x="-54" y="-6" width="46" height="12" fill="url(#logoGrad)" rx="6"/>
    
    <!-- N diagonal -->
    <rect x="20" y="-50" width="12" height="110" fill="url(#logoGrad)" rx="6" transform="rotate(25)"/>
    <!-- N left vertical -->
    <rect x="20" y="-50" width="12" height="100" fill="url(#logoGrad)" rx="6"/>
    <!-- N right vertical -->
    <rect x="60" y="-50" width="12" height="100" fill="url(#logoGrad)" rx="6"/>
  </g>
  
  <!-- Accent bars around the logo -->
  <rect x="50" y="40" width="8" height="30" fill="url(#logoGrad)" rx="4"/>
  <rect x="65" y="25" width="8" height="45" fill="url(#logoGrad)" rx="4"/>
  <rect x="80" y="35" width="8" height="35" fill="url(#logoGrad)" rx="4"/>
  
  <rect x="112" y="30" width="8" height="40" fill="url(#logoGrad)" rx="4"/>
  <rect x="127" y="20" width="8" height="50" fill="url(#logoGrad)" rx="4"/>
  <rect x="142" y="35" width="8" height="35" fill="url(#logoGrad)" rx="4"/>
</svg>